<svg xmlns="http://www.w3.org/2000/svg" xml:space="preserve" width="1.70666in" height="1.70666in" version="1.1" style="shape-rendering:geometricPrecision; text-rendering:geometricPrecision; image-rendering:optimizeQuality; fill-rule:evenodd; clip-rule:evenodd" viewBox="0 0 1707 1707" xmlns:xlink="http://www.w3.org/1999/xlink">
 <defs>
  <style type="text/css">
   
    .fil0 {fill:black}
   
  </style>
 </defs>
 <g id="Layer_x0020_1">
  <metadata id="CorelCorpID_0Corel-Layer"></metadata>
  <path class="fil0" d="M113 1603c-5,0 -11,-2 -15,-5 -8,-7 -11,-19 -6,-29l97 -187 -40 -2c-82,0 -149,-73 -149,-163l0 -617c0,-90 67,-163 150,-163l1033 0c80,0 147,74 147,163l0 617c0,88 -67,163 -147,163l-755 0 -301 219c-4,3 -9,4 -14,4zm880 -600c-52,0 -96,-42 -96,-93 0,-53 43,-97 96,-97 53,0 94,43 94,97 0,51 -42,93 -94,93zm0 -143c-27,0 -50,23 -50,50 0,24 24,47 50,47 28,0 47,-24 47,-47 0,-28 -20,-50 -47,-50zm-326 143c-53,0 -97,-42 -97,-93 0,-53 43,-97 97,-97 52,0 93,43 93,97 0,51 -42,93 -93,93zm0 -143c-27,0 -50,23 -50,50 0,24 23,47 50,47 28,0 46,-24 46,-47 0,-28 -20,-50 -46,-50zm-327 143c-52,0 -97,-42 -97,-93 0,-53 44,-97 97,-97 51,0 93,45 93,97 0,50 -43,93 -93,93zm0 -143c-27,0 -50,23 -50,50 0,24 24,47 50,47 24,0 47,-23 47,-47 0,-26 -23,-50 -47,-50z" id="id_101" style="fill: rgb(69, 69, 69);"></path>
  <path class="fil0" d="M1593 1270c-4,0 -9,-1 -13,-5l-203 -148 0 -517c0,-107 -82,-210 -194,-210l-806 0 0 -123c0,-89 67,-164 146,-164l1034 0c82,0 150,74 150,164l0 616c0,90 -67,163 -150,164l-39 1 96 188c5,10 3,21 -5,28 -5,4 -10,6 -16,6z" id="id_102" style="fill: rgb(64, 64, 64);"></path>
 </g>
</svg>