<svg width="48" height="48" viewBox="0 0 48 48" fill="none" xmlns="http://www.w3.org/2000/svg">
<path d="M24.0001 35.2622L15.2741 39.1072C14.9953 39.2302 14.689 39.2779 14.386 39.2455C14.083 39.2131 13.7938 39.1018 13.5472 38.9226C13.3007 38.7435 13.1054 38.5028 12.981 38.2246C12.8566 37.9464 12.8073 37.6404 12.8381 37.3372L13.7981 27.8502L7.44511 20.7392C7.24192 20.5121 7.10188 20.2356 7.03898 19.9374C6.97607 19.6392 6.9925 19.3297 7.08663 19.0398C7.18075 18.75 7.34928 18.4899 7.57538 18.2855C7.80148 18.0811 8.07723 17.9397 8.37511 17.8752L17.6951 15.8572L22.3681 7.83423C22.5342 7.54865 22.7724 7.31166 23.0587 7.14693C23.3451 6.9822 23.6697 6.89551 24.0001 6.89551C24.3305 6.89551 24.6551 6.9822 24.9415 7.14693C25.2279 7.31166 25.466 7.54865 25.6321 7.83423L30.3051 15.8572L39.6251 17.8752C39.923 17.9397 40.1987 18.0811 40.4248 18.2855C40.6509 18.4899 40.8195 18.75 40.9136 19.0398C41.0077 19.3297 41.0241 19.6392 40.9612 19.9374C40.8983 20.2356 40.7583 20.5121 40.5551 20.7392L34.2001 27.8502L35.1601 37.3372C35.1909 37.6404 35.1416 37.9464 35.0172 38.2246C34.8928 38.5028 34.6976 38.7435 34.451 38.9226C34.2045 39.1018 33.9152 39.2131 33.6122 39.2455C33.3092 39.2779 33.0029 39.2302 32.7241 39.1072L24.0001 35.2622Z" fill="#ff0000" id="id_101"></path>
<path d="M33.5001 32.0002C28.9761 31.9966 24.5805 30.496 20.9989 27.7323C17.4172 24.9686 14.8509 21.0973 13.7001 16.7222L8.37511 17.8752C8.07723 17.9396 7.80148 18.0811 7.57538 18.2854C7.34928 18.4898 7.18075 18.7499 7.08663 19.0398C6.9925 19.3296 6.97607 19.6391 7.03898 19.9373C7.10188 20.2355 7.24192 20.512 7.44511 20.7392L13.7981 27.8492L12.8381 37.3372C12.8073 37.6404 12.8566 37.9463 12.981 38.2245C13.1054 38.5027 13.3007 38.7434 13.5472 38.9226C13.7938 39.1017 14.083 39.213 14.386 39.2454C14.689 39.2778 14.9953 39.2301 15.2741 39.1072L24.0001 35.2622L32.7261 39.1072C33.005 39.2301 33.3112 39.2778 33.6142 39.2454C33.9172 39.213 34.2065 39.1017 34.453 38.9226C34.6996 38.7434 34.8948 38.5027 35.0192 38.2245C35.1436 37.9463 35.1929 37.6404 35.1621 37.3372L34.6161 31.9442C34.2441 31.9642 33.8771 32.0002 33.5001 32.0002Z" fill="#ff4a4a" id="id_102"></path>
<path d="M14.564 40.259C14.1811 40.2568 13.8029 40.1747 13.4535 40.018C13.1041 39.8613 12.7913 39.6334 12.5351 39.3488C12.2789 39.0643 12.0849 38.7294 11.9656 38.3656C11.8462 38.0017 11.8041 37.617 11.842 37.236L12.759 28.188L6.69998 21.405C6.38123 21.0473 6.16174 20.6123 6.06335 20.1434C5.96495 19.6745 5.9911 19.188 6.13918 18.7323C6.28725 18.2767 6.5521 17.8678 6.90734 17.5463C7.26259 17.2248 7.69584 17.002 8.16398 16.9L17.053 14.975L21.5 7.33097C21.7544 6.89436 22.1189 6.53208 22.557 6.28029C22.9951 6.0285 23.4916 5.896 23.997 5.896C24.5023 5.896 24.9988 6.0285 25.437 6.28029C25.8751 6.53208 26.2396 6.89436 26.494 7.33097L30.944 14.972L39.834 16.897C40.3028 16.9984 40.7369 17.221 41.0928 17.5426C41.4488 17.8642 41.7142 18.2735 41.8625 18.7297C42.0109 19.1858 42.037 19.673 41.9383 20.1424C41.8396 20.6118 41.6195 21.0472 41.3 21.405L35.24 28.188L36.157 37.236C36.2053 37.7132 36.1276 38.1948 35.9317 38.6326C35.7357 39.0704 35.4283 39.4492 35.0402 39.731C34.652 40.0129 34.1968 40.188 33.7198 40.2389C33.2428 40.2898 32.7608 40.2146 32.322 40.021L24 36.354L15.677 40.021C15.3268 40.1775 14.9476 40.2586 14.564 40.259ZM24 7.89997C23.8443 7.89831 23.6909 7.93832 23.5559 8.01586C23.4209 8.0934 23.309 8.20565 23.232 8.34097L18.559 16.36C18.4891 16.4799 18.3951 16.584 18.2829 16.6656C18.1706 16.7472 18.0426 16.8045 17.907 16.834L8.58698 18.853C8.45977 18.8799 8.34186 18.9398 8.24507 19.0266C8.14828 19.1134 8.07601 19.2242 8.0355 19.3477C7.99499 19.4713 7.98766 19.6033 8.01424 19.7306C8.04083 19.8579 8.1004 19.976 8.18698 20.073L14.541 27.184C14.6333 27.2874 14.7031 27.4089 14.746 27.5408C14.7889 27.6727 14.8039 27.812 14.79 27.95L13.83 37.438C13.817 37.5671 13.8381 37.6974 13.8912 37.8158C13.9443 37.9342 14.0275 38.0366 14.1326 38.1128C14.2376 38.189 14.3608 38.2363 14.4898 38.25C14.6189 38.2638 14.7493 38.2434 14.868 38.191L23.6 34.347C23.7269 34.2906 23.8642 34.2615 24.003 34.2615C24.1418 34.2615 24.2791 34.2906 24.406 34.347L33.132 38.191C33.2507 38.2434 33.3811 38.2638 33.5101 38.25C33.6392 38.2363 33.7624 38.189 33.8674 38.1128C33.9724 38.0366 34.0557 37.9342 34.1088 37.8158C34.1619 37.6974 34.183 37.5671 34.17 37.438L33.21 27.95C33.1961 27.812 33.2111 27.6727 33.2539 27.5408C33.2968 27.4089 33.3666 27.2874 33.459 27.184L39.813 20.072C39.8993 19.9749 39.9587 19.857 39.9851 19.7298C40.0115 19.6027 40.0041 19.4708 39.9637 19.3474C39.9232 19.224 39.851 19.1134 39.7544 19.0266C39.6577 18.9399 39.54 18.88 39.413 18.853L30.092 16.834C29.9564 16.8045 29.8284 16.7472 29.7161 16.6656C29.6039 16.584 29.5098 16.4799 29.44 16.36L24.768 8.33697C24.6904 8.2024 24.5784 8.09095 24.4434 8.01413C24.3084 7.93731 24.1553 7.8979 24 7.89997V7.89997Z" fill="black" id="id_103"></path>
<path d="M24 46C23.7348 46 23.4804 45.8946 23.2929 45.7071C23.1054 45.5196 23 45.2652 23 45V41C23 40.7348 23.1054 40.4804 23.2929 40.2929C23.4804 40.1054 23.7348 40 24 40C24.2652 40 24.5196 40.1054 24.7071 40.2929C24.8946 40.4804 25 40.7348 25 41V45C25 45.2652 24.8946 45.5196 24.7071 45.7071C24.5196 45.8946 24.2652 46 24 46Z" fill="black" id="id_104"></path>
<path d="M4.02813 31.4892C3.79006 31.4892 3.55982 31.4042 3.3788 31.2496C3.19779 31.0949 3.07788 30.8808 3.04063 30.6456C3.00339 30.4105 3.05126 30.1698 3.17564 29.9668C3.30001 29.7638 3.49273 29.6118 3.71913 29.5382L7.51913 28.3022C7.76728 28.2337 8.0323 28.2635 8.25903 28.3854C8.48576 28.5073 8.65673 28.712 8.73636 28.9568C8.81599 29.2016 8.79814 29.4677 8.68652 29.6997C8.5749 29.9317 8.37812 30.1117 8.13713 30.2022L4.33713 31.4382C4.23752 31.4716 4.1332 31.4889 4.02813 31.4892V31.4892Z" fill="black" id="id_105"></path>
<path d="M43.9721 31.4891C43.8672 31.4894 43.7628 31.4729 43.6631 31.4401L39.8631 30.2041C39.7329 30.1682 39.6113 30.1062 39.5057 30.0219C39.4001 29.9376 39.3127 29.8328 39.2487 29.7139C39.1847 29.5949 39.1455 29.4641 39.1334 29.3296C39.1213 29.195 39.1366 29.0594 39.1784 28.9309C39.2202 28.8024 39.2876 28.6838 39.3765 28.582C39.4655 28.4803 39.5741 28.3977 39.6958 28.3391C39.8176 28.2805 39.9499 28.2472 40.0849 28.2412C40.2199 28.2352 40.3547 28.2566 40.4811 28.3041L44.2811 29.5401C44.5075 29.6137 44.7002 29.7657 44.8246 29.9687C44.949 30.1717 44.9969 30.4124 44.9596 30.6476C44.9224 30.8827 44.8025 31.0968 44.6215 31.2515C44.4404 31.4061 44.2102 31.4911 43.9721 31.4911V31.4891Z" fill="black" id="id_106"></path>
<path d="M33.9908 11.2471C33.8065 11.247 33.6257 11.1959 33.4686 11.0994C33.3115 11.003 33.184 10.865 33.1004 10.7006C33.0168 10.5363 32.9803 10.3521 32.9948 10.1683C33.0094 9.98447 33.0744 9.80827 33.1828 9.65914L35.5338 6.42314C35.6899 6.20858 35.9248 6.06481 36.1869 6.02346C36.449 5.98211 36.7168 6.04656 36.9313 6.20264C37.1459 6.35872 37.2897 6.59364 37.331 6.85572C37.3724 7.11781 37.3079 7.38558 37.1518 7.60014L34.7998 10.8341C34.7072 10.962 34.5855 11.066 34.4449 11.1378C34.3043 11.2096 34.1487 11.247 33.9908 11.2471Z" fill="black" id="id_107"></path>
<path d="M14.0089 11.2468C13.8508 11.2469 13.695 11.2095 13.5542 11.1377C13.4134 11.0659 13.2916 10.9618 13.1989 10.8338L10.8479 7.59984C10.6919 7.38528 10.6276 7.11755 10.669 6.85557C10.7105 6.59358 10.8543 6.35878 11.0689 6.20284C11.2834 6.04689 11.5511 5.98256 11.8131 6.02401C12.0751 6.06545 12.3099 6.20928 12.4659 6.42384L14.8169 9.65984C14.9253 9.80897 14.9903 9.98517 15.0049 10.169C15.0194 10.3528 14.9829 10.537 14.8993 10.7013C14.8156 10.8656 14.6882 11.0037 14.5311 11.1001C14.374 11.1965 14.1932 11.2477 14.0089 11.2478V11.2468Z" fill="black" id="id_108"></path>
</svg>