<?xml version="1.0" encoding="UTF-8" standalone="no"?> <svg width="43" height="43" viewBox="0 0 43 43" fill="none" xmlns="http://www.w3.org/2000/svg">
<rect x="0.297852" y="0.859863" width="42" height="42" rx="21" fill="black"/>
<path d="M18.1479 32.3599H16.8879C14.9979 32.3599 13.9479 32.3599 13.1079 31.9399C12.2679 31.5199 11.6379 30.8899 11.3229 30.1549C10.7979 29.2099 10.7979 28.1599 10.7979 26.2699V17.4499C10.7979 15.5599 10.7979 14.5099 11.2179 13.6699C11.6379 12.8299 12.2679 12.1999 13.0029 11.8849C13.9479 11.3599 14.9979 11.3599 16.8879 11.3599H18.1479C18.7779 11.3599 19.1979 11.7799 19.1979 12.4099C19.1979 13.0399 18.7779 13.4599 18.1479 13.4599H16.8879C15.3129 13.4599 14.4729 13.4599 14.0529 13.6699C13.6329 13.8799 13.3179 14.1949 13.1079 14.6149C12.8979 15.0349 12.8979 15.8749 12.8979 17.4499V26.2699C12.8979 27.8449 12.8979 28.6849 13.1079 29.1049C13.3179 29.5249 13.6329 29.8399 14.0529 30.0499C14.4729 30.2599 15.3129 30.2599 16.8879 30.2599H18.1479C18.7779 30.2599 19.1979 30.6799 19.1979 31.3099C19.1979 31.9399 18.7779 32.3599 18.1479 32.3599ZM25.4979 28.1599C25.1829 28.1599 24.9729 28.0549 24.7629 27.8449C24.3429 27.4249 24.3429 26.7949 24.7629 26.3749L28.2279 22.9099H18.1479C17.5179 22.9099 17.0979 22.4899 17.0979 21.8599C17.0979 21.2299 17.5179 20.8099 18.1479 20.8099H28.2279L24.7629 17.3449C24.3429 16.9249 24.3429 16.2949 24.7629 15.8749C25.1829 15.4549 25.8129 15.4549 26.2329 15.8749L31.4829 21.1249C31.5879 21.2299 31.6929 21.3349 31.6929 21.4399C31.6929 21.5449 31.7979 21.6499 31.7979 21.8599C31.7979 21.9649 31.7978 22.1749 31.6929 22.2799C31.6929 22.3849 31.5879 22.4899 31.4829 22.5949L26.2329 27.8449C26.0229 28.0549 25.8129 28.1599 25.4979 28.1599Z" fill="white"/>
</svg>
