<svg width="64" height="64" viewBox="0 0 64 64" fill="none" xmlns="http://www.w3.org/2000/svg">
<path d="M42.46 15.89C42.645 15.7046 42.8648 15.5575 43.1068 15.4571C43.3487 15.3568 43.6081 15.3051 43.87 15.3051C44.1319 15.3051 44.3913 15.3568 44.6333 15.4571C44.8752 15.5575 45.095 15.7046 45.28 15.89L48.11 18.72C48.2954 18.905 48.4425 19.1248 48.5429 19.3668C48.6432 19.6087 48.6949 19.8681 48.6949 20.13C48.6949 20.3919 48.6432 20.6513 48.5429 20.8933C48.4425 21.1352 48.2954 21.355 48.11 21.54L45.28 24.37L39.63 18.72L42.46 15.89Z" fill="#BDDBFF" id="id_111"></path>
<path d="M39.63 24.37L23.37 40.64H23.36L20.54 37.81L36.81 21.55L39.63 24.37Z" fill="#BDDBFF" id="id_112"></path>
<path d="M42.46 27.2L26.19 43.46L23.37 40.64L39.63 24.37L42.46 27.2Z" fill="#BDDBFF" id="id_113"></path>
<path d="M22.11 45.03L17 47L18.97 41.89L22.11 45.03Z" fill="#BDDBFF" id="id_114"></path>
<path d="M55 2H9C7.14413 2.00212 5.36489 2.7403 4.05259 4.05259C2.7403 5.36489 2.00212 7.14413 2 9V55C2.00212 56.8559 2.7403 58.6351 4.05259 59.9474C5.36489 61.2597 7.14413 61.9979 9 62H55C56.8559 61.9979 58.6351 61.2597 59.9474 59.9474C61.2597 58.6351 61.9979 56.8559 62 55V9C61.9979 7.14413 61.2597 5.36489 59.9474 4.05259C58.6351 2.7403 56.8559 2.00212 55 2V2ZM60 55C60 56.3261 59.4732 57.5979 58.5355 58.5355C57.5979 59.4732 56.3261 60 55 60H9C7.67392 60 6.40215 59.4732 5.46447 58.5355C4.52678 57.5979 4 56.3261 4 55V9C4 7.67392 4.52678 6.40215 5.46447 5.46447C6.40215 4.52678 7.67392 4 9 4H55C56.3261 4 57.5979 4.52678 58.5355 5.46447C59.4732 6.40215 60 7.67392 60 9V55Z" fill="#9bd0d4" id="id_115"></path>
<path d="M8 55V49H6V55C6 55.7956 6.31607 56.5587 6.87868 57.1213C7.44129 57.6839 8.20435 58 9 58H15V56H9C8.73478 56 8.48043 55.8946 8.29289 55.7071C8.10536 55.5196 8 55.2652 8 55Z" fill="#6ad0d4" id="id_116"></path>
<path d="M55 6H49V8H55C55.2652 8 55.5196 8.10536 55.7071 8.29289C55.8946 8.48043 56 8.73478 56 9V14H58V9C58 8.20435 57.6839 7.44129 57.1213 6.87868C56.5587 6.31607 55.7956 6 55 6Z" fill="#6ad0d4" id="id_117"></path>
<path d="M19 56H17V58H19V56Z" fill="#c954aa" id="id_118"></path>
<path d="M47 6H45V8H47V6Z" fill="#e82cb6" id="id_119"></path>
<path d="M48.82 18.01L45.99 15.18C45.4183 14.6358 44.6593 14.3324 43.87 14.3324C43.0807 14.3324 42.3217 14.6358 41.75 15.18L19.83 37.1C19.7298 37.1994 19.6515 37.3186 19.6 37.45L16.07 46.64C15.9974 46.8202 15.9795 47.0178 16.0187 47.2082C16.0578 47.3985 16.1522 47.573 16.29 47.71C16.4792 47.8965 16.7343 48.0008 17 48C17.1235 48.001 17.2459 47.9772 17.36 47.93L26.55 44.4C26.6814 44.3485 26.8006 44.2702 26.9 44.17L48.82 22.25C49.0989 21.9719 49.3202 21.6414 49.4712 21.2777C49.6221 20.9139 49.6998 20.5239 49.6998 20.13C49.6998 19.7361 49.6221 19.3461 49.4712 18.9823C49.3202 18.6185 49.0989 18.2881 48.82 18.01V18.01ZM36.8 22.96L38.21 24.37L23.36 39.22L21.95 37.81L36.8 22.96ZM18.74 45.26L19.35 43.69L20.31 44.65L18.74 45.26ZM22.35 43.87L20.13 41.65L20.92 39.6L24.4 43.08L22.35 43.87ZM26.19 42.05L24.78 40.64L39.63 25.79L41.04 27.2L26.19 42.05ZM42.46 25.79L38.21 21.54L39.63 20.13L43.87 24.37L42.46 25.79ZM47.41 20.84L45.28 22.96L41.04 18.72L43.16 16.59C43.3534 16.4116 43.6069 16.3125 43.87 16.3125C44.1331 16.3125 44.3866 16.4116 44.58 16.59L47.41 19.42C47.5959 19.6096 47.7001 19.8645 47.7001 20.13C47.7001 20.3955 47.5959 20.6504 47.41 20.84V20.84Z" fill="#1d9fa3" id="id_120"></path>
</svg>