<?xml version="1.0" encoding="UTF-8" standalone="no"?> <svg id="Picture" xmlns="http://www.w3.org/2000/svg" viewBox="0 0 32 32"><defs><style>.cls-1{fill:#009ae0;}.cls-2{fill:#00cf66;}.cls-3{fill:#fac100;}</style></defs><title>Picture</title><path class="cls-1" d="M24,29H8a5.006,5.006,0,0,1-5-5V8A5.006,5.006,0,0,1,8,3H24a5.006,5.006,0,0,1,5,5V24A5.006,5.006,0,0,1,24,29Z"/><path class="cls-2" d="M25.117,17.7a3,3,0,0,0-4.234,0l-2.18,2.18a1,1,0,0,1-1.406,0l-4.18-4.18a3,3,0,0,0-4.234,0L3,21.586V24a5.006,5.006,0,0,0,5,5H24a5.006,5.006,0,0,0,5-5V21.586Z"/><circle class="cls-3" cx="20.5" cy="11" r="3"/></svg>