<svg xmlns="http://www.w3.org/2000/svg" xmlns:xlink="http://www.w3.org/1999/xlink" viewBox="0 0 64 64"><defs><style>.cls-1{fill:url(#linear-gradient);}.cls-2{fill:url(#linear-gradient-2);}</style><linearGradient id="linear-gradient" x1="2.03" y1="52.19" x2="61.97" y2="52.19" gradientUnits="userSpaceOnUse"><stop offset="0" stop-color="#70f5b9" id="id_103"></stop><stop offset="1" stop-color="#7dd4ad" id="id_104"></stop></linearGradient><linearGradient id="linear-gradient-2" x1="6.95" y1="28.68" x2="57.05" y2="28.68" xlink:href="#linear-gradient"></linearGradient></defs><g id="Layer_32" data-name="Layer 32"><path class="cls-1" d="M60,50.19H4a2,2,0,0,0,0,4H60A2,2,0,0,0,60,50.19Z" id="id_101"></path><path class="cls-2" d="M9,47.55h46.1a2,2,0,0,0,2-2V38.91a24.8,24.8,0,0,0-23-25V11.81a2,2,0,0,0-4,0v2.11a24.8,24.8,0,0,0-23,25v6.64A2,2,0,0,0,9,47.55Zm44.1-4H11V40.91h42.1ZM31.71,17.86A20.81,20.81,0,0,1,53,36.91H11A20.78,20.78,0,0,1,31.71,17.86Z" id="id_102"></path></g></svg>