<svg width="48" height="48" viewBox="0 0 48 48" fill="none" xmlns="http://www.w3.org/2000/svg">
<path d="M43.0002 18.5C43.007 17.111 42.7076 15.7376 42.1234 14.4774C41.5392 13.2173 40.6845 12.1013 39.6201 11.209C38.5557 10.3166 37.3077 9.66973 35.965 9.31437C34.6222 8.95902 33.2176 8.9039 31.8512 9.15295C30.9796 7.87425 29.8089 6.82781 28.4408 6.10463C27.0727 5.38144 25.5486 5.00342 24.0012 5.00342C22.4537 5.00342 20.9296 5.38144 19.5615 6.10463C18.1934 6.82781 17.0227 7.87425 16.1512 9.15295C13.8344 8.74078 11.4471 9.20387 9.45247 10.4524C7.45783 11.7009 5.99805 13.6458 5.35635 15.9097C4.71464 18.1737 4.93676 20.5953 5.97961 22.7048C7.02246 24.8142 8.81169 26.4611 11.0002 27.326V39C11.0002 40.0608 11.4216 41.0782 12.1717 41.8284C12.9219 42.5785 13.9393 43 15.0002 43H33.0002C34.061 43 35.0785 42.5785 35.8286 41.8284C36.5787 41.0782 37.0002 40.0608 37.0002 39V27.326C38.7692 26.6249 40.2869 25.4088 41.3567 23.8351C42.4265 22.2615 42.999 20.4028 43.0002 18.5V18.5Z" fill="#D9E1E2" id="id_101"></path>
<path d="M43.0002 18.5C43.007 17.111 42.7076 15.7376 42.1234 14.4774C41.5392 13.2173 40.6845 12.1013 39.6201 11.209C38.5557 10.3166 37.3077 9.66973 35.965 9.31437C34.6222 8.95902 33.2176 8.9039 31.8512 9.15295C30.9796 7.87425 29.8089 6.82781 28.4408 6.10463C27.0727 5.38144 25.5486 5.00342 24.0012 5.00342C22.4537 5.00342 20.9296 5.38144 19.5615 6.10463C18.1934 6.82781 17.0227 7.87425 16.1512 9.15295C13.8344 8.74078 11.4471 9.20387 9.45247 10.4524C7.45783 11.7009 5.99805 13.6458 5.35635 15.9097C4.71464 18.1737 4.93676 20.5953 5.97961 22.7048C7.02246 24.8142 8.81169 26.4611 11.0002 27.326V39C11.0002 40.0608 11.4216 41.0782 12.1717 41.8284C12.9219 42.5785 13.9393 43 15.0002 43H33.0002C34.061 43 35.0785 42.5785 35.8286 41.8284C36.5787 41.0782 37.0002 40.0608 37.0002 39V27.326C38.7692 26.6249 40.2869 25.4088 41.3567 23.8351C42.4265 22.2615 42.999 20.4028 43.0002 18.5V18.5Z" fill="#EAEFF0" id="id_102"></path>
<path d="M15.9468 38.8099V24.8509C14.5668 24.3063 13.3115 23.4877 12.2567 22.4445C11.2019 21.4013 10.3695 20.1551 9.80977 18.7812C9.25002 17.4073 8.97456 15.9342 9 14.4509C9.02545 12.9676 9.35128 11.5048 9.95782 10.1509C8.37193 11.0143 7.06497 12.3119 6.19007 13.8915C5.31517 15.4711 4.90858 17.2673 5.01793 19.0697C5.12728 20.8721 5.74804 22.606 6.80749 24.0682C7.86693 25.5305 9.32117 26.6605 10.9998 27.3259V38.9999C10.9998 40.0607 11.4212 41.0782 12.1714 41.8283C12.9215 42.5784 13.939 42.9999 14.9998 42.9999H20.1378C19.5875 43 19.0425 42.8917 18.5341 42.6812C18.0256 42.4707 17.5636 42.1621 17.1744 41.773C16.7852 41.3839 16.4765 40.922 16.2659 40.4136C16.0552 39.9051 15.9468 39.3602 15.9468 38.8099V38.8099Z" fill="#D9E1E2" id="id_103"></path>
<path d="M24 26C23.7348 26 23.4804 26.1054 23.2929 26.2929C23.1054 26.4804 23 26.7348 23 27V31C23 31.2652 23.1054 31.5196 23.2929 31.7071C23.4804 31.8946 23.7348 32 24 32C24.2652 32 24.5196 31.8946 24.7071 31.7071C24.8946 31.5196 25 31.2652 25 31V27C25 26.7348 24.8946 26.4804 24.7071 26.2929C24.5196 26.1054 24.2652 26 24 26Z" fill="black" id="id_104"></path>
<path d="M30 27C29.7348 27 29.4804 27.1054 29.2929 27.2929C29.1054 27.4804 29 27.7348 29 28V31C29 31.2652 29.1054 31.5196 29.2929 31.7071C29.4804 31.8946 29.7348 32 30 32C30.2652 32 30.5196 31.8946 30.7071 31.7071C30.8946 31.5196 31 31.2652 31 31V28C31 27.7348 30.8946 27.4804 30.7071 27.2929C30.5196 27.1054 30.2652 27 30 27Z" fill="black" id="id_105"></path>
<path d="M18 27C17.7348 27 17.4804 27.1054 17.2929 27.2929C17.1054 27.4804 17 27.7348 17 28V31C17 31.2652 17.1054 31.5196 17.2929 31.7071C17.4804 31.8946 17.7348 32 18 32C18.2652 32 18.5196 31.8946 18.7071 31.7071C18.8946 31.5196 19 31.2652 19 31V28C19 27.7348 18.8946 27.4804 18.7071 27.2929C18.5196 27.1054 18.2652 27 18 27Z" fill="black" id="id_106"></path>
<path d="M33.5 8.00014C33.0988 8.0003 32.698 8.02535 32.3 8.07514C31.3187 6.80752 30.0602 5.7814 28.621 5.07544C27.1818 4.36949 25.6 4.00244 23.997 4.00244C22.3939 4.00244 20.8122 4.36949 19.3729 5.07544C17.9337 5.7814 16.6752 6.80752 15.694 8.07514C15.2979 8.0256 14.8991 8.00055 14.5 8.00014C12.1182 8.00292 9.80811 8.81539 7.94897 10.3042C6.08983 11.793 4.79209 13.8696 4.26879 16.1932C3.74548 18.5168 4.02771 20.9492 5.06914 23.0912C6.11057 25.2333 7.84932 26.9576 9.99996 27.9811V39.0001C10.0015 40.3257 10.5288 41.5966 11.4662 42.5339C12.4035 43.4713 13.6744 43.9986 15 44.0001H33C34.3256 43.9986 35.5964 43.4713 36.5337 42.5339C37.4711 41.5966 37.9984 40.3257 38 39.0001V27.9811C40.1506 26.9576 41.8893 25.2333 42.9308 23.0912C43.9722 20.9492 44.2544 18.5168 43.7311 16.1932C43.2078 13.8696 41.9101 11.793 40.0509 10.3042C38.1918 8.81539 35.8817 8.00292 33.5 8.00014V8.00014ZM33 42.0001H15C14.2043 42.0001 13.4412 41.6841 12.8786 41.1215C12.316 40.5589 12 39.7958 12 39.0001V38.0091H36V39.0001C36 39.7958 35.6839 40.5589 35.1213 41.1215C34.5587 41.6841 33.7956 42.0001 33 42.0001ZM36.631 26.4001C36.4447 26.4741 36.285 26.6023 36.1725 26.7681C36.0599 26.9339 35.9998 27.1297 36 27.3301V36.0131H12V27.3261C12.0001 27.1257 11.94 26.9299 11.8275 26.7641C11.7149 26.5983 11.5552 26.4701 11.369 26.3961C9.53432 25.665 8.01156 24.3177 7.06223 22.5859C6.1129 20.8541 5.79627 18.8457 6.16672 16.9058C6.53717 14.9658 7.57158 13.2155 9.09226 11.9553C10.6129 10.6951 12.525 10.0038 14.5 10.0001C14.9957 10.003 15.4902 10.0489 15.978 10.1371C16.1675 10.1706 16.3626 10.1487 16.54 10.0741C16.7174 9.99938 16.8695 9.8751 16.978 9.71614C17.7577 8.57191 18.8053 7.6355 20.0294 6.98836C21.2536 6.34122 22.6173 6.00294 24.002 6.00294C25.3866 6.00294 26.7503 6.34122 27.9745 6.98836C29.1987 7.6355 30.2462 8.57191 31.026 9.71614C31.1345 9.8751 31.2865 9.99938 31.4639 10.0741C31.6413 10.1487 31.8364 10.1706 32.026 10.1371C33.2484 9.91494 34.5048 9.96472 35.7059 10.2829C36.907 10.6011 38.0232 11.1799 38.9753 11.9783C39.9274 12.7766 40.692 13.7748 41.2148 14.902C41.7375 16.0292 42.0056 17.2577 42 18.5001C42.0058 20.2047 41.4962 21.8712 40.5381 23.2811C39.5799 24.6909 38.218 25.7781 36.631 26.4001V26.4001Z" fill="black" id="id_107"></path>
</svg>