<?xml version="1.0" encoding="UTF-8" standalone="no"?> <svg width="64" height="64" viewBox="0 0 64 64" fill="none" xmlns="http://www.w3.org/2000/svg">
<path d="M50.27 6.44997C47.2255 5.1936 43.8836 4.84045 40.6437 5.43274C37.4039 6.02503 34.4031 7.5377 32 9.78997C23.57 2.35997 13.8 4.63997 8.05998 10.14C2.05998 15.88 -0.590017 26.14 7.68998 35.14L7.74998 35.08C8.29998 35.75 9.37998 36.83 11.36 38.82L31 58.46C31.2829 58.7415 31.6658 58.8995 32.065 58.8995C32.4641 58.8995 32.847 58.7415 33.13 58.46L56.34 35.21C58.4116 33.1493 59.9346 30.603 60.7702 27.8031C61.6058 25.0032 61.7275 22.0387 61.1241 19.1797C60.5207 16.3207 59.2114 13.6582 57.3156 11.4348C55.4197 9.21134 52.9976 7.49768 50.27 6.44997V6.44997Z" fill="#F0454E"/>
<path d="M14.9 35.2998C13.22 33.6298 12 32.4198 11.63 31.9998L9.38999 29.1898C5.32999 22.6298 8.59999 16.5498 11.52 13.7498C13.8668 11.4492 17.0042 10.1327 20.29 10.0698C23.427 10.1416 26.425 11.3786 28.7 13.5398L32.1 16.5398L35.42 13.4498C37.6257 11.3363 40.5651 10.1605 43.62 10.1698C45.2745 10.1798 46.9125 10.4986 48.45 11.1098C50.8096 12.0023 52.8402 13.5944 54.2699 15.6729C55.6997 17.7514 56.4603 20.2171 56.45 22.7398C56.4571 24.3985 56.1346 26.0421 55.5012 27.5751C54.8677 29.1081 53.9359 30.5 52.76 31.6698L32 52.4498L14.9 35.2998Z" fill="#C1272D"/>
</svg>
