<?xml version="1.0" encoding="utf-8"?>
<!-- Generator: Adobe Illustrator 18.0.0, SVG Export Plug-In . SVG Version: 6.00 Build 0)  -->
<!DOCTYPE svg PUBLIC "-//W3C//DTD SVG 1.1//EN" "http://www.w3.org/Graphics/SVG/1.1/DTD/svg11.dtd">
<svg version="1.1" id="Layer_1" xmlns="http://www.w3.org/2000/svg" xmlns:xlink="http://www.w3.org/1999/xlink" x="0px" y="0px"
	 viewBox="0 0 302 276.7" enable-background="new 0 0 302 276.7" xml:space="preserve">
<g>
	<path fill="#FFFFFF" stroke="#21409A" stroke-width="6.384" stroke-miterlimit="10" d="M257.3,151.8l21.8-1.6l-3.2-42.1l-21.6,1.6
		c-3.2-11.8-8.4-22.8-15.2-32.6l14.8-15.5l-30.6-29.2l-14.7,15.4c-10.9-7-23.2-12-36.4-14.7V11.9h-42.2v21.2
		c-16.6,3.3-31.8,10.5-44.6,20.5l-16.1-14L41.7,71.5l16.2,14.1c-6.8,12-11.3,25.5-12.9,39.8L23.3,127l3.2,42.1l21.9-1.7
		c3.3,11.6,8.6,22.4,15.4,32.1l-15.3,16L79,244.8l15.4-16.1c10.8,6.8,22.8,11.6,35.6,14.2v22.4h42.2v-22.4
		c16.3-3.3,31.2-10.2,43.9-19.9l16.8,14.6l27.7-31.9L244,191.2C250.9,179.3,255.5,165.9,257.3,151.8z M151.2,172.2
		c-18.6,0-33.6-15.1-33.6-33.6c0-18.6,15-33.6,33.6-33.6c18.6,0,33.6,15,33.6,33.6C184.8,157.1,169.8,172.2,151.2,172.2z"/>
	<path fill="#5FCCF5" stroke="#21409A" stroke-width="6.384" stroke-miterlimit="10" d="M218.5,138.6c0,37.1-30.1,67.2-67.2,67.2
		c-37.1,0-67.2-30.1-67.2-67.2c0-37.1,30.1-67.3,67.2-67.3C188.4,71.3,218.5,101.4,218.5,138.6z"/>
	<path fill="#FFFFFF" stroke="#21409A" stroke-width="6.384" stroke-miterlimit="10" d="M184.8,138.6c0,18.6-15,33.6-33.6,33.6
		c-18.6,0-33.6-15.1-33.6-33.6c0-18.6,15-33.6,33.6-33.6C169.8,105,184.8,120,184.8,138.6z"/>
	<path fill="none" stroke="#21409A" stroke-width="6.384" stroke-miterlimit="10" d="M151.2,226.5"/>
	<path fill="none" stroke="#21409A" stroke-width="6.384" stroke-miterlimit="10" d="M151.2,50.6c46.7,0,88,37.6,88,87.9"/>
</g>
</svg>
